<svg preserveAspectRatio="none" width="100%" height="100%" overflow="visible" style="display: block;" viewBox="0 0 17 17" fill="none" xmlns="http://www.w3.org/2000/svg">
<g id="Group">
<path id="Vector" d="M8.33333 0C6.1232 0 4.00358 0.877974 2.44078 2.44078C0.877974 4.00358 0 6.1232 0 8.33333C0 10.5435 0.877974 12.6631 2.44078 14.2259C4.00358 15.7887 6.1232 16.6667 8.33333 16.6667C10.5435 16.6667 12.6631 15.7887 14.2259 14.2259C15.7887 12.6631 16.6667 10.5435 16.6667 8.33333C16.6667 6.1232 15.7887 4.00358 14.2259 2.44078C12.6631 0.877974 10.5435 0 8.33333 0ZM14.1667 5H11.6667C11.4167 3.91667 11 2.91667 10.5 2C12.0483 2.51735 13.353 3.5848 14.1667 5ZM8.33333 1.66667C9.06391 2.68129 9.62665 3.80676 10 5H6.66667C7.04002 3.80676 7.60275 2.68129 8.33333 1.66667ZM1.91667 10C1.64151 8.90592 1.64151 7.76074 1.91667 6.66667H4.66667C4.53149 7.77367 4.53149 8.893 4.66667 10H1.91667ZM2.58333 11.6667H5.08333C5.33333 12.75 5.66667 13.6667 6.16667 14.6667C4.61837 14.1493 3.3137 13.0819 2.5 11.6667H2.58333ZM5.08333 5H2.5C3.29333 3.60039 4.56603 2.53487 6.08333 2C5.66667 2.91667 5.25 3.91667 5 5H5.08333ZM8.33333 15C7.60275 13.9854 7.04002 12.8599 6.66667 11.6667H10C9.62665 12.8599 9.06391 13.9854 8.33333 15ZM10.25 10H6.41667C6.26479 8.89408 6.26479 7.77259 6.41667 6.66667H10.25C10.4029 7.77252 10.4029 8.89415 10.25 10ZM10.5 14.6667C11 13.6667 11.3333 12.6667 11.6667 11.6667H14.1667C13.353 13.0819 12.0483 14.1493 10.5 14.6667ZM12 10C12.1352 8.893 12.1352 7.77367 12 6.66667H14.75C15.0252 7.76074 15.0252 8.90592 14.75 10H12Z" fill="var(--fill-0, white)"/>
</g>
</svg>
