<svg width="117" height="32" viewBox="0 0 117 32" fill="none" xmlns="http://www.w3.org/2000/svg">
<g clip-path="url(#clip0_653_4488)">
<path fill-rule="evenodd" clip-rule="evenodd" d="M33.7944 3.91078C33.7944 3.38811 33.1503 3.11898 32.6991 3.38811L30.8308 4.44903C30.4123 4.70339 30.1062 4.97252 30.1062 5.52637V19.3381C30.1062 19.7975 30.2351 20.2406 30.6863 20.7321C31.5069 21.6347 33.4884 22.95 36.3553 22.95C40.7524 22.95 43.9089 20.2726 43.9089 16.3128C43.9089 12.1791 41.2029 9.85047 37.6599 9.85047C36.2585 9.85047 34.7126 10.1516 33.8109 10.753V3.91078H33.7944ZM58.7421 13.0185C58.7421 12.4802 58.7421 12.1315 58.2425 11.7196C56.9707 10.6111 55.0219 9.88165 52.4447 9.88165C48.1764 9.88165 44.9715 12.4326 44.9715 16.4868C44.9715 20.6845 47.9032 22.9811 51.3009 22.9811C53.1216 22.9811 54.3942 22.3165 55.0703 21.2392V21.7299C55.0703 22.2525 55.424 22.6168 55.9237 22.6168H57.9044C58.4041 22.6168 58.7577 22.2525 58.7577 21.7307V13.0176H58.7413L58.7421 13.0185ZM95.4305 13.24H100.858C101.39 13.24 101.728 12.9233 101.728 12.4326V11.1649C101.728 10.6743 101.374 10.3575 100.858 10.3575H95.4305V6.03344C95.4305 5.49519 94.738 5.27283 94.3352 5.51078L92.4677 6.5717C92.0492 6.82606 91.7432 7.09436 91.7432 7.64903V16.7247C91.7432 20.7001 94.24 22.9655 98.089 22.9655C99.2039 22.9842 100.302 22.6937 101.262 22.1262C101.761 21.8094 101.986 21.4131 101.986 20.9692V19.4964C101.986 19.1321 101.712 18.9582 101.439 18.9582C101.133 18.9582 100.891 19.1797 100.569 19.4012C100.167 19.6712 99.538 19.9879 98.5239 19.9879C96.5752 19.9879 95.447 18.831 95.447 16.8355V13.24H95.4305ZM70.322 18.2295C70.102 18.7633 69.7259 19.2181 69.2431 19.5346C68.7603 19.8511 68.1932 20.0145 67.616 20.0035C65.5704 20.0035 64.5883 18.7998 64.5883 16.7567V11.2445C64.5883 10.7219 64.2338 10.3575 63.735 10.3575H61.6894C61.1897 10.3575 60.8361 10.7219 60.8361 11.2437V16.8207C60.8361 20.7961 63.0909 22.9664 66.8587 22.9664C68.3085 22.9664 69.6131 22.3961 70.3056 21.3188V23.5834C70.3056 25.6429 68.8566 26.5619 66.8595 26.5619C65.6673 26.5619 64.7819 26.2131 64.1378 25.8972C63.7194 25.6749 63.3805 25.4533 63.1393 25.4533C62.8168 25.4533 62.4623 25.6429 62.4623 26.0868V27.544C62.4623 27.8607 62.6396 28.2562 63.1064 28.5729C63.8638 29.112 65.2004 29.5395 67.0531 29.5395C70.6281 29.5395 74.0267 27.4332 74.0267 23.3619V11.2445C74.0267 10.7219 73.6722 10.3575 73.1733 10.3575H71.1426C70.6437 10.3575 70.2892 10.7219 70.2892 11.2437V18.2295H70.3212H70.322ZM85.7674 18.2295C85.5473 18.7633 85.1712 19.2181 84.6884 19.5346C84.2056 19.8511 83.6385 20.0145 83.0613 20.0035C81.0158 20.0035 80.0336 18.7998 80.0336 16.7567V11.2445C80.0336 10.7219 79.6792 10.3575 79.1803 10.3575H77.1348C76.6351 10.3575 76.2814 10.7219 76.2814 11.2437V16.8207C76.2814 20.7961 78.5362 22.9664 82.2564 22.9664C83.7538 22.9664 85.1233 22.3805 85.7994 21.2236V21.7151C85.7994 22.2377 86.1538 22.6012 86.6527 22.6012H88.6342C89.1331 22.6012 89.4876 22.2377 89.4876 21.7151V11.2453C89.4876 10.7227 89.1331 10.3584 88.6342 10.3584H86.6051C86.1054 10.3584 85.7518 10.7227 85.7518 11.2445V18.2304H85.7674V18.2295ZM33.7944 13.7315C34.582 13.1124 35.5635 12.7926 36.5645 12.8289C38.546 12.8289 40.0107 13.9054 40.0107 16.4236C40.0107 19.0533 38.4164 20.0831 36.2913 20.0831C35.3887 20.0831 34.423 19.7655 33.7944 19.1953V13.7307V13.7315ZM55.0211 18.2451C54.6191 19.3225 53.3793 19.9879 52.1551 19.9879C50.1095 19.9879 48.8049 18.7366 48.8049 16.3284C48.8049 13.8899 50.432 12.6697 52.3807 12.6697C53.4113 12.6697 54.4098 12.8601 55.0219 13.4148L55.0211 18.2451ZM15.5635 20.9233C18.4763 21.0521 21.2267 19.5973 22.7233 17.1358C23.4571 15.9315 23.8453 14.5485 23.8453 13.1383C23.8453 11.728 23.4571 10.345 22.7233 9.14072C21.2267 6.67919 18.4771 5.2236 15.5635 5.35324C11.3305 5.54113 7.99671 8.97088 7.99671 13.1383C7.99671 17.3056 11.3305 20.7354 15.5635 20.9233ZM18.1407 3.62688C22.3278 4.73293 25.3136 8.36698 25.5335 12.6263C25.7542 16.8847 23.159 20.7986 19.1073 22.3165C15.0556 23.8353 10.4706 22.6144 7.7522 19.2913L7.70461 19.3233L2.21127 22.4429C2.01107 22.5577 1.7723 22.5881 1.5483 22.5282C1.32584 22.4695 1.13579 22.3249 1.01989 22.1262L0.359376 21.0021C0.301862 20.9047 0.264522 20.7968 0.249579 20.6847C0.234637 20.5727 0.242399 20.4588 0.272402 20.3497C0.332299 20.129 0.479992 19.942 0.681017 19.8295L6.17353 16.7247L6.22194 16.6927C4.85332 13.2367 5.57784 9.31713 8.09599 6.55611C10.615 3.79508 14.4976 2.66196 18.1399 3.62606L18.1407 3.62688ZM15.5635 13.1284C14.6445 13.1284 13.888 13.8726 13.888 14.776V16.8355C13.8865 16.9964 13.8212 17.1501 13.7064 17.2629C13.5916 17.3756 13.4368 17.4382 13.2759 17.4369H11.0375C10.8372 17.4373 10.6448 17.3589 10.5017 17.2187C10.4317 17.15 10.376 17.068 10.3379 16.9776C10.2999 16.8871 10.2803 16.79 10.2802 16.6919V12.2259C10.2802 11.1165 10.2802 11.0057 10.7151 10.7686L14.6453 8.53519C14.999 8.32924 15.2566 8.18647 15.5791 8.18647C15.9015 8.18647 16.1592 8.32924 16.5128 8.53519L20.4431 10.7686C20.8779 11.0222 20.8779 11.1165 20.8779 12.2259V16.6919C20.8773 16.7906 20.8572 16.8882 20.8187 16.9791C20.7803 17.07 20.7243 17.1524 20.6539 17.2216C20.5836 17.2909 20.5003 17.3455 20.4087 17.3824C20.3172 17.4194 20.2193 17.4379 20.1206 17.4369H17.8831C17.8033 17.4376 17.7242 17.4225 17.6503 17.3926C17.5764 17.3627 17.5091 17.3185 17.4523 17.2626C17.3954 17.2067 17.3502 17.1401 17.3191 17.0667C17.288 16.9932 17.2716 16.9144 17.271 16.8347V14.7752C17.2365 13.8677 16.4866 13.1448 15.5635 13.1284Z" fill="white"/>
<path d="M81.3373 25.6636L81.2388 25.7702C81.2068 25.7998 81.1576 25.7998 81.1091 25.7998C81.0518 25.7986 80.9957 25.7831 80.9459 25.7546L80.7342 25.648C80.6468 25.6005 80.5536 25.5646 80.4568 25.5413C80.3401 25.5093 80.2193 25.4941 80.0983 25.4962C79.8538 25.4962 79.6749 25.5421 79.5608 25.648C79.504 25.6967 79.4584 25.7573 79.4274 25.8254C79.3963 25.8936 79.3806 25.9677 79.3811 26.0426C79.3811 26.1493 79.414 26.2396 79.4796 26.3011C79.5444 26.3618 79.6257 26.4225 79.7397 26.4833L80.1147 26.6203L80.5389 26.7417L80.9623 26.9083C81.0927 26.969 81.2232 27.0453 81.3373 27.1512C81.4513 27.2422 81.5325 27.3645 81.5982 27.5007C81.7295 27.8609 81.7237 28.2523 81.5818 28.6084C81.5022 28.7897 81.3865 28.9546 81.2396 29.0949C81.0919 29.2312 80.8975 29.3378 80.6849 29.4289C80.2747 29.5512 79.8365 29.5717 79.4131 29.4896L78.9578 29.3682L78.5336 29.1713C78.4103 29.098 78.2955 29.0113 78.1914 28.9128L78.5007 28.4566L78.5992 28.3663C78.6484 28.3352 78.6804 28.3352 78.7297 28.3352C78.7994 28.3352 78.8691 28.3565 78.9249 28.3959L79.1695 28.5329C79.2679 28.578 79.3647 28.6396 79.4788 28.6691C79.6199 28.7167 79.7693 28.7372 79.9194 28.7298C80.1639 28.7298 80.3592 28.6847 80.4897 28.578C80.6201 28.4714 80.6849 28.3204 80.6849 28.1079C80.6897 28.0028 80.6549 27.8997 80.5873 27.8191C80.5168 27.7376 80.4271 27.6751 80.3264 27.6369C80.2054 27.5848 80.0799 27.5442 79.9514 27.5155C79.8089 27.4799 79.6677 27.4394 79.528 27.394L79.1038 27.2422C78.8245 27.1251 78.5983 26.9088 78.4687 26.635C78.401 26.4657 78.3676 26.2845 78.3704 26.1021C78.3733 25.9197 78.4122 25.7397 78.4852 25.5725C78.559 25.4059 78.6698 25.2558 78.8109 25.1319C78.9578 25.0104 79.1366 24.9046 79.3483 24.8283C79.8637 24.6655 80.4174 24.6709 80.9295 24.8439C81.1904 24.9341 81.4021 25.0564 81.5818 25.2082L81.3373 25.6636ZM82.1848 26.5899C82.6204 26.244 83.1606 26.0565 83.7167 26.0582C83.9284 26.0582 84.1245 26.0886 84.287 26.1485C84.4511 26.21 84.5971 26.3011 84.7112 26.4225C84.8253 26.544 84.9229 26.681 84.9885 26.8328C85.0542 26.9994 85.0862 27.1667 85.0862 27.3637V29.474H84.6456C84.5739 29.4749 84.5024 29.4646 84.4339 29.4437C84.3846 29.4133 84.3518 29.3682 84.3198 29.2919L84.2378 29.0794L83.9777 29.2763C83.8973 29.3336 83.8096 29.3797 83.7167 29.4133L83.4238 29.5044L83.0808 29.5347C82.8027 29.5433 82.5291 29.4638 82.2989 29.3075C82.2028 29.2328 82.1295 29.1328 82.0872 29.0186C82.0333 28.894 82.0054 28.7597 82.0052 28.624C82.0079 28.4785 82.0504 28.3365 82.1281 28.2134C82.2057 28.0903 82.3156 27.9908 82.4458 27.9257C82.6082 27.8191 82.8363 27.7436 83.0972 27.6673C83.3746 27.6065 83.7167 27.5606 84.1245 27.5606V27.394C84.1245 27.1815 84.0753 27.0297 83.9777 26.9239C83.8792 26.8172 83.7496 26.7721 83.5699 26.7721C83.4595 26.7686 83.3494 26.7838 83.2441 26.8172L83.016 26.9083L82.8363 26.9994C82.7753 27.0287 82.7087 27.0443 82.641 27.0453C82.5754 27.0453 82.5106 27.0297 82.4778 26.9994L82.3637 26.8927L82.1848 26.5899ZM84.1565 28.0775L83.5699 28.1382C83.4409 28.1578 83.3149 28.1937 83.1949 28.2449C83.0973 28.29 83.0324 28.3352 82.9996 28.3959C82.9668 28.4566 82.934 28.5173 82.934 28.578C82.934 28.715 82.9668 28.8061 83.0488 28.8521C83.1301 28.9128 83.2277 28.9276 83.3746 28.9276C83.5198 28.9276 83.6634 28.9021 83.798 28.8521C83.9293 28.7873 84.0507 28.706 84.1565 28.6084V28.0775ZM89.014 26.1189V29.4748H88.4273C88.2968 29.4748 88.232 29.4289 88.1828 29.3222L88.1172 29.0949L87.8899 29.2771C87.816 29.3329 87.734 29.3788 87.6454 29.4133C87.5588 29.4593 87.465 29.4901 87.368 29.5044L87.0423 29.5347C86.8641 29.5387 86.6869 29.508 86.5204 29.4445C86.3756 29.3863 86.246 29.2959 86.1414 29.18C86.0369 29.0641 85.9603 28.9258 85.9174 28.7758C85.8681 28.624 85.8353 28.4418 85.8353 28.2588V26.1189H86.7978V28.2597C86.7978 28.4418 86.847 28.5936 86.9282 28.6995C87.0259 28.8061 87.1563 28.8521 87.3352 28.8521C87.464 28.8496 87.592 28.8242 87.7102 28.7758L88.0523 28.5477V26.1337H89.014V26.1189ZM93.0074 24.6314V29.4888H92.4207C92.2903 29.4888 92.2255 29.4437 92.1762 29.3378L92.0942 29.049L91.8669 29.2459C91.7856 29.3059 91.6981 29.3571 91.606 29.3985L91.3122 29.5052L90.9537 29.5347C90.5738 29.5347 90.216 29.3657 89.992 29.0794C89.8657 28.9165 89.7716 28.731 89.7147 28.5329C89.5802 28.0657 89.5859 27.5692 89.7311 27.1052C89.8132 26.8935 89.9108 26.7114 90.0413 26.544C90.4269 26.0976 91.0751 25.9269 91.6544 26.1189C91.7857 26.1797 91.9153 26.2404 92.0129 26.3462V24.6158H93.0074V24.6314ZM92.0458 26.9994C91.9594 26.9138 91.8603 26.8422 91.752 26.7868C91.6432 26.7437 91.5268 26.7231 91.4099 26.7261C91.2982 26.7228 91.1871 26.7435 91.0841 26.7868C90.9864 26.8293 90.9019 26.8973 90.8396 26.9838C90.7697 27.0871 90.7147 27.1998 90.6763 27.3185C90.6042 27.6331 90.6042 27.9599 90.6763 28.2744C90.7009 28.3868 90.7453 28.4943 90.8076 28.5936C90.8724 28.6691 90.9373 28.7298 91.0193 28.7602C91.1005 28.7905 91.1982 28.8209 91.2958 28.8209C91.4591 28.8209 91.606 28.7905 91.72 28.7306C91.8459 28.6621 91.9567 28.5689 92.0458 28.4566V26.9994ZM94.9143 25.1622C94.9143 25.2385 94.8979 25.314 94.865 25.3756C94.8309 25.4376 94.7871 25.4938 94.7354 25.5421C94.6787 25.5951 94.612 25.6364 94.5393 25.6636C94.393 25.723 94.2294 25.723 94.0831 25.6636C94.0146 25.638 93.9533 25.5964 93.9042 25.5421C93.8519 25.4936 93.8076 25.4371 93.7729 25.3747C93.7399 25.3088 93.7233 25.2359 93.7245 25.1622C93.7245 25.0867 93.7409 25.0104 93.7738 24.9497C93.8445 24.8239 93.9526 24.7233 94.0831 24.6617C94.155 24.6304 94.2328 24.6148 94.3112 24.6158C94.3933 24.6158 94.4745 24.6314 94.5393 24.6617C94.6214 24.6921 94.6706 24.7224 94.7354 24.7832L94.8659 24.9497C94.8987 25.026 94.9151 25.0867 94.9151 25.1631L94.9143 25.1622ZM94.8002 26.1189V29.4748H93.8386V26.1189H94.8002ZM101.614 29.4896H100.798C100.717 29.4955 100.637 29.4741 100.57 29.4289C100.514 29.3907 100.469 29.3383 100.44 29.2771L100.097 28.3811H98.0765L97.7344 29.2771C97.718 29.3378 97.6687 29.3838 97.6031 29.4289C97.5362 29.4739 97.4562 29.4953 97.3758 29.4896H96.561L98.5491 24.7676H99.6248L101.614 29.4896ZM99.8529 27.6828L99.2991 26.2404C99.2615 26.1511 99.2286 26.0599 99.2006 25.9672L99.103 25.6332L99.0054 25.9672L98.9077 26.2404L98.3703 27.6828H99.8529ZM102.852 26.681C102.947 26.5054 103.08 26.3503 103.243 26.2248C103.39 26.1181 103.569 26.0582 103.765 26.0582C103.928 26.0582 104.058 26.0886 104.157 26.1649L104.091 26.8328C104.081 26.8661 104.064 26.8969 104.042 26.9231L103.944 26.9542L103.782 26.9386L103.585 26.9239L103.357 26.9542C103.221 27.0065 103.107 27.1026 103.032 27.2275L102.917 27.44V29.4896H101.956V26.1337H102.526C102.625 26.1337 102.689 26.1493 102.721 26.1797C102.754 26.21 102.787 26.2699 102.804 26.3462L102.852 26.681ZM104.466 26.5899C104.901 26.244 105.442 26.0565 105.998 26.0582C106.21 26.0582 106.406 26.0886 106.569 26.1485C106.731 26.21 106.878 26.3011 106.992 26.4225C107.107 26.544 107.204 26.681 107.27 26.8328C107.335 26.9994 107.367 27.1667 107.367 27.3637V29.474H106.927C106.855 29.475 106.784 29.4647 106.715 29.4437C106.666 29.4133 106.634 29.3682 106.601 29.2919L106.519 29.0794L106.259 29.2763C106.178 29.3336 106.091 29.3797 105.998 29.4133L105.705 29.5044L105.363 29.5347C105.084 29.5435 104.81 29.4639 104.58 29.3075C104.484 29.2328 104.411 29.1328 104.368 29.0186C104.314 28.894 104.286 28.7597 104.286 28.624C104.289 28.4785 104.331 28.3365 104.409 28.2134C104.487 28.0903 104.597 27.9908 104.727 27.9257C104.889 27.8191 105.118 27.7436 105.378 27.6673C105.656 27.6065 105.998 27.5606 106.406 27.5606V27.394C106.406 27.1815 106.356 27.0297 106.259 26.9239C106.16 26.8172 106.031 26.7721 105.851 26.7721C105.741 26.7686 105.63 26.7838 105.525 26.8172L105.297 26.9083L105.118 26.9994C105.057 27.0288 104.99 27.0445 104.922 27.0453C104.856 27.0453 104.792 27.0297 104.76 26.9994L104.645 26.8927L104.466 26.5899ZM106.438 28.0775L105.851 28.1382C105.722 28.1579 105.596 28.1937 105.477 28.2449C105.378 28.29 105.313 28.3352 105.281 28.3959C105.245 28.4505 105.222 28.513 105.215 28.578C105.215 28.715 105.248 28.8061 105.33 28.8521C105.412 28.9128 105.509 28.9276 105.656 28.9276C105.801 28.9276 105.944 28.9021 106.08 28.8521C106.211 28.7873 106.332 28.706 106.438 28.6084V28.0775ZM109.095 26.5136C109.23 26.3815 109.391 26.2732 109.568 26.1944C109.753 26.1132 109.953 26.0718 110.154 26.073C110.54 26.0705 110.903 26.2404 111.133 26.5284C111.247 26.6654 111.344 26.8484 111.409 27.0453C111.475 27.2422 111.508 27.4703 111.508 27.728C111.508 28.0012 111.475 28.2449 111.393 28.4722C111.311 28.6995 111.214 28.8824 111.083 29.049C110.955 29.2065 110.788 29.3321 110.594 29.4133C110.307 29.5323 109.989 29.5635 109.682 29.5044C109.596 29.4879 109.513 29.4574 109.437 29.4141C109.358 29.3835 109.286 29.3368 109.225 29.2771C109.158 29.2297 109.098 29.1734 109.046 29.1097L109.013 29.3066C108.999 29.3589 108.97 29.4063 108.931 29.4437C108.899 29.474 108.851 29.474 108.785 29.474H108.149V24.6166H109.111V26.5136H109.094H109.095ZM109.095 28.5936C109.193 28.6847 109.29 28.7602 109.388 28.8061C109.503 28.8521 109.6 28.8668 109.714 28.8668C109.829 28.8668 109.943 28.8521 110.04 28.8061C110.138 28.7637 110.223 28.6956 110.285 28.6092C110.365 28.5042 110.42 28.3852 110.447 28.2597C110.515 27.9394 110.515 27.6084 110.447 27.2882C110.419 27.181 110.375 27.0787 110.317 26.9846C110.258 26.9116 110.186 26.8499 110.105 26.8024C110.014 26.7575 109.914 26.7366 109.812 26.7417C109.676 26.7393 109.542 26.7702 109.421 26.832C109.296 26.9058 109.186 26.9985 109.095 27.106V28.5936ZM113.235 25.1622C113.235 25.2385 113.218 25.314 113.185 25.3756C113.151 25.4376 113.108 25.4938 113.056 25.5421C112.999 25.5951 112.932 25.6364 112.86 25.6636C112.713 25.723 112.55 25.723 112.404 25.6636C112.335 25.638 112.274 25.5964 112.225 25.5421C112.172 25.4936 112.128 25.4371 112.093 25.3747C112.06 25.3088 112.044 25.2359 112.045 25.1622C112.045 25.0867 112.061 25.0104 112.094 24.9497C112.165 24.8239 112.273 24.7233 112.404 24.6617C112.475 24.6304 112.553 24.6148 112.632 24.6158C112.714 24.6158 112.795 24.6314 112.86 24.6617C112.942 24.6921 112.991 24.7224 113.056 24.7832L113.186 24.9497C113.219 25.026 113.236 25.0867 113.236 25.1631L113.235 25.1622ZM113.121 26.1189V29.4748H112.159V26.1189H113.121ZM113.854 26.5899C114.29 26.244 114.83 26.0565 115.386 26.0582C115.599 26.0582 115.794 26.0886 115.957 26.1485C116.12 26.21 116.266 26.3011 116.381 26.4225C116.495 26.544 116.592 26.681 116.658 26.8328C116.724 26.9994 116.756 27.1667 116.756 27.3637V29.474H116.316C116.244 29.475 116.172 29.4647 116.103 29.4437C116.054 29.4133 116.022 29.3682 115.989 29.2919L115.908 29.0794L115.647 29.2763C115.567 29.3336 115.479 29.3797 115.386 29.4133L115.093 29.5044L114.751 29.5347C114.473 29.5435 114.199 29.4639 113.968 29.3075C113.872 29.2328 113.799 29.1328 113.757 29.0186C113.703 28.894 113.675 28.7597 113.674 28.624C113.677 28.4785 113.72 28.3365 113.797 28.2134C113.875 28.0903 113.985 27.9908 114.115 27.9257C114.278 27.8191 114.506 27.7436 114.767 27.6673C115.044 27.6065 115.386 27.5606 115.794 27.5606V27.394C115.794 27.1815 115.745 27.0297 115.647 26.9239C115.549 26.8172 115.419 26.7721 115.24 26.7721C115.129 26.7685 115.019 26.7837 114.913 26.8172L114.685 26.9083L114.506 26.9994C114.445 27.0288 114.378 27.0445 114.31 27.0453C114.245 27.0453 114.18 27.0297 114.148 26.9994L114.033 26.8927L113.854 26.5899ZM115.827 28.0775L115.24 28.1382C115.111 28.1578 114.985 28.1937 114.865 28.2449C114.767 28.29 114.702 28.3352 114.669 28.3959C114.633 28.4505 114.61 28.513 114.603 28.578C114.603 28.715 114.636 28.8061 114.718 28.8521C114.8 28.9128 114.897 28.9276 115.044 28.9276C115.189 28.9276 115.333 28.9021 115.468 28.8521C115.599 28.7873 115.72 28.706 115.827 28.6084V28.0775Z" fill="white"/>
</g>
<defs>
<clipPath id="clip0_653_4488">
<rect width="116.513" height="32" fill="white" transform="translate(0.242188)"/>
</clipPath>
</defs>
</svg>
