<svg width="212" height="84" viewBox="0 0 212 84" fill="none" xmlns="http://www.w3.org/2000/svg">
<g filter="url(#filter0_d_722_4476)">
<path fill-rule="evenodd" clip-rule="evenodd" d="M14.4483 3.82434C14.4125 3.47865 14.2889 3.14792 14.0895 2.86368C13.89 2.57945 13.6212 2.3512 13.3088 2.20068C12.9963 2.05017 12.6507 1.98242 12.3047 2.00389C11.9587 2.02535 11.624 2.13533 11.3325 2.32332L5.95996 5.38639C5.36384 5.6615 4.86085 6.10523 4.5128 6.66305C4.16474 7.22087 3.98677 7.86848 4.00077 8.52632V48.509C3.99035 49.2586 4.12916 50.0028 4.40904 50.698C4.68893 51.3932 5.10427 52.0254 5.63079 52.5577C7.74055 54.6694 10.2581 56.327 13.0291 57.429C15.8002 58.531 18.7664 59.0541 21.7462 58.9664C34.2273 58.9664 43.1643 51.2104 43.1643 39.7516C43.1643 27.8045 35.4988 21.0454 25.4301 21.0454C21.6156 20.9019 17.8352 21.8129 14.5024 23.6789L14.4483 3.82434ZM85.2541 30.1419C85.3726 29.4442 85.3041 28.7274 85.0557 28.0649C84.8074 27.4025 84.388 26.818 83.8405 26.3713C79.1902 22.6341 73.3345 20.7367 67.3824 21.0386C55.2508 21.0386 46.1741 28.4352 46.1741 40.1675C46.1741 52.3407 54.473 58.9551 64.1246 58.9551C66.2001 59.1315 68.2854 58.7574 70.1711 57.8701C72.0567 56.9829 73.6764 55.6139 74.8675 53.9005V55.3178C74.8445 55.6476 74.8897 55.9786 75.0005 56.29C75.1112 56.6014 75.285 56.8865 75.511 57.1273C75.7369 57.368 76.0101 57.5593 76.3134 57.6891C76.6166 57.8189 76.9434 57.8843 77.2731 57.8813H82.8778C83.2081 57.8847 83.5356 57.8193 83.8394 57.6894C84.1433 57.5595 84.4169 57.3679 84.6432 57.1266C84.8695 56.8853 85.0433 56.5995 85.1539 56.2874C85.2645 55.9754 85.3094 55.6437 85.2857 55.3133L85.2541 30.1419ZM189.414 30.7522H204.812C205.133 30.7815 205.456 30.7422 205.76 30.6368C206.065 30.5315 206.343 30.3625 206.578 30.1411C206.812 29.9198 206.997 29.651 207.12 29.3526C207.243 29.0542 207.302 28.733 207.292 28.4103V24.8205C207.303 24.497 207.246 24.1748 207.123 23.8753C207.001 23.5759 206.816 23.306 206.581 23.0836C206.347 22.8612 206.068 22.6914 205.763 22.5856C205.458 22.4797 205.134 22.4401 204.812 22.4695H189.414V9.94596C189.372 9.60252 189.244 9.27526 189.042 8.99455C188.84 8.71384 188.571 8.48876 188.259 8.34018C187.948 8.1916 187.604 8.12434 187.259 8.14463C186.915 8.16492 186.581 8.2721 186.289 8.45624L180.966 11.5171C180.352 11.7739 179.828 12.2082 179.462 12.7646C179.095 13.321 178.902 13.9743 178.907 14.6412V40.8977C178.907 52.4153 186.007 58.9687 196.93 58.9687C200.103 59.0255 203.229 58.1857 205.948 56.5453C206.553 56.2172 207.061 55.735 207.421 55.1472C207.781 54.5594 207.98 53.8869 207.998 53.1974V48.9317C208.009 48.7235 207.977 48.5151 207.903 48.3203C207.829 48.1254 207.715 47.9485 207.567 47.801C207.42 47.6535 207.244 47.5389 207.05 47.4645C206.855 47.3902 206.647 47.3579 206.44 47.3697C205.59 47.3697 204.882 48.0072 203.96 48.6537C202.25 49.8269 200.212 50.4239 198.141 50.3582C192.608 50.3582 189.411 47.0102 189.411 41.2458L189.414 30.7522ZM118.109 45.2221C117.495 46.7509 116.434 48.0579 115.067 48.9723C113.699 49.8867 112.088 50.3658 110.444 50.3468C104.625 50.3468 101.859 46.8543 101.859 40.9564V25.0262C101.881 24.6958 101.835 24.3644 101.723 24.0527C101.612 23.7411 101.437 23.456 101.21 23.2156C100.983 22.9751 100.708 22.7845 100.404 22.6557C100.1 22.5269 99.7721 22.4627 99.4419 22.4673H93.6229C93.2935 22.464 92.9669 22.5291 92.6637 22.6584C92.3605 22.7878 92.0872 22.9786 91.8611 23.219C91.635 23.4593 91.4609 23.7439 91.3497 24.0549C91.2385 24.3659 91.1927 24.6966 91.2151 25.0262V41.1848C91.2151 52.7137 97.5977 58.9754 108.316 58.9754C110.217 59.0746 112.112 58.6894 113.825 57.8557C115.537 57.0221 117.011 55.7671 118.109 54.2079V60.7522C118.109 66.7224 113.99 69.3605 108.316 69.3605C105.62 69.3565 102.966 68.6971 100.58 67.439C99.7237 66.8351 98.7605 66.3994 97.742 66.155C97.4919 66.1371 97.2408 66.1722 97.0051 66.2578C96.7693 66.3434 96.5541 66.4777 96.3735 66.6521C96.1928 66.8264 96.0507 67.0368 95.9563 67.2698C95.8619 67.5027 95.8174 67.7529 95.8256 68.0042V72.2043C95.8655 72.8145 96.0546 73.4056 96.3763 73.9252C96.6979 74.4448 97.1421 74.877 97.6698 75.1837C101.039 77.2275 104.948 78.1979 108.879 77.9665C119.025 77.9665 128.674 71.8449 128.674 60.108V25.0262C128.697 24.6966 128.651 24.3659 128.54 24.0549C128.428 23.7439 128.254 23.4593 128.028 23.219C127.802 22.9786 127.529 22.7878 127.226 22.6584C126.922 22.5291 126.596 22.464 126.266 22.4673H120.52C120.19 22.4626 119.862 22.5268 119.559 22.6557C119.255 22.7846 118.981 22.9754 118.755 23.216C118.528 23.4566 118.354 23.7418 118.243 24.0534C118.133 24.365 118.088 24.6963 118.112 25.0262L118.109 45.2221ZM161.978 45.2221C161.364 46.7514 160.304 48.059 158.936 48.9735C157.568 49.888 155.957 50.3667 154.313 50.3468C148.494 50.3468 145.727 46.8543 145.727 40.9564V25.0262C145.75 24.6976 145.704 24.3678 145.594 24.0576C145.483 23.7473 145.31 23.4633 145.085 23.2231C144.86 22.983 144.588 22.7919 144.287 22.6619C143.985 22.5318 143.659 22.4656 143.331 22.4673H137.512C137.182 22.4626 136.855 22.5268 136.551 22.6557C136.247 22.7846 135.973 22.9754 135.747 23.216C135.521 23.4566 135.347 23.7418 135.236 24.0534C135.125 24.365 135.08 24.6963 135.104 25.0262V41.1848C135.104 52.7137 141.487 58.9754 152.06 58.9754C154.034 59.0948 156.004 58.6904 157.772 57.803C159.54 56.9156 161.044 55.5765 162.131 53.9208V55.3382C162.108 55.6685 162.153 56.0002 162.263 56.3123C162.374 56.6244 162.548 56.9101 162.774 57.1514C163 57.3927 163.274 57.5844 163.578 57.7143C163.882 57.8442 164.209 57.9095 164.539 57.9062H170.144C170.475 57.9108 170.803 57.8464 171.108 57.717C171.413 57.5877 171.688 57.3962 171.915 57.1548C172.143 56.9133 172.317 56.6272 172.428 56.3145C172.54 56.0018 172.585 55.6693 172.561 55.3382V25.0262C172.583 24.6958 172.537 24.3644 172.426 24.0527C172.314 23.7411 172.139 23.456 171.912 23.2156C171.685 22.9751 171.41 22.7845 171.106 22.6557C170.802 22.5269 170.474 22.4627 170.144 22.4673H164.406C164.076 22.4627 163.748 22.5269 163.444 22.6557C163.14 22.7845 162.866 22.9751 162.638 23.2156C162.411 23.456 162.236 23.7411 162.125 24.0527C162.013 24.3644 161.967 24.6958 161.989 25.0262L161.978 45.2221ZM14.4483 32.2171C16.6748 30.4222 19.4704 29.4891 22.3256 29.588C27.9304 29.588 32.1193 32.7121 32.1193 39.9731C32.1193 47.5844 27.5809 50.5661 21.5455 50.5661C18.9506 50.588 16.4331 49.6806 14.446 48.0072L14.4483 32.2171ZM74.7255 45.3058C74.0211 46.866 72.8688 48.1802 71.4159 49.0806C69.963 49.9809 68.2753 50.4265 66.5686 50.3604C60.7496 50.3604 57.0612 46.7706 57.0612 39.7583C56.9406 38.3723 57.1167 36.9764 57.578 35.6642C58.0392 34.352 58.7748 33.1538 59.7355 32.1499C60.6961 31.146 61.8597 30.3595 63.1482 29.8432C64.4368 29.3269 65.8205 29.0927 67.2066 29.1563C69.8855 28.9658 72.5464 29.7216 74.7277 31.2925L74.7255 45.3058Z" fill="#28B16D"/>
</g>
<defs>
<filter id="filter0_d_722_4476" x="0" y="0" width="212" height="84" filterUnits="userSpaceOnUse" color-interpolation-filters="sRGB">
<feFlood flood-opacity="0" result="BackgroundImageFix"/>
<feColorMatrix in="SourceAlpha" type="matrix" values="0 0 0 0 0 0 0 0 0 0 0 0 0 0 0 0 0 0 127 0" result="hardAlpha"/>
<feOffset dy="2"/>
<feGaussianBlur stdDeviation="2"/>
<feComposite in2="hardAlpha" operator="out"/>
<feColorMatrix type="matrix" values="0 0 0 0 0 0 0 0 0 0 0 0 0 0 0 0 0 0 0.25 0"/>
<feBlend mode="normal" in2="BackgroundImageFix" result="effect1_dropShadow_722_4476"/>
<feBlend mode="normal" in="SourceGraphic" in2="effect1_dropShadow_722_4476" result="shape"/>
</filter>
</defs>
</svg>
