<svg preserveAspectRatio="none" width="100%" height="100%" overflow="visible" style="display: block;" viewBox="0 0 10 16" fill="none" xmlns="http://www.w3.org/2000/svg">
<path id="Vector" d="M7.6 0H2C1.46957 0 0.960859 0.210714 0.585786 0.585786C0.210714 0.960859 0 1.46957 0 2V14C0 15.1 0.9 16 2 16H7.6C8.13043 16 8.63914 15.7893 9.01421 15.4142C9.38929 15.0391 9.6 14.5304 9.6 14V2C9.6 1.46957 9.38929 0.960859 9.01421 0.585786C8.63914 0.210714 8.13043 0 7.6 0ZM4.8 14.7C4.68181 14.7 4.56478 14.6767 4.45559 14.6315C4.34639 14.5863 4.24718 14.52 4.1636 14.4364C4.08003 14.3528 4.01374 14.2536 3.96851 14.1444C3.92328 14.0352 3.9 13.9182 3.9 13.8C3.9 13.3 4.3 12.9 4.8 12.9C5.0387 12.9 5.26761 12.9948 5.4364 13.1636C5.60518 13.3324 5.7 13.5613 5.7 13.8C5.7 14.0387 5.60518 14.2676 5.4364 14.4364C5.26761 14.6052 5.0387 14.7 4.8 14.7ZM8.7 11.93H0.9V2.67H8.7V11.93Z" fill="var(--fill-0, white)"/>
</svg>
