<svg preserveAspectRatio="none" width="100%" height="100%" overflow="visible" style="display: block;" viewBox="0 0 35 20" fill="none" xmlns="http://www.w3.org/2000/svg">
<g id="droidarabic">
<path id="Vector" d="M4.00651 13.1408C3.0004 13.1408 2.21719 12.8872 1.65687 12.38C1.09656 11.8688 0.816406 11.1551 0.816406 10.239C0.816406 9.24926 1.12723 8.47013 1.7489 7.90164C2.37056 7.33315 3.20694 7.0489 4.25804 7.0489H5.08624V6.25751H6.15983V12.1592H7.58924C7.63014 12.1592 7.65059 12.1756 7.65059 12.2083V13.0794C7.65059 13.1203 7.63014 13.1408 7.58924 13.1408H4.00651ZM5.08624 12.1592V8.02434H4.29485C3.54231 8.02434 2.9595 8.21861 2.54642 8.60714C2.13743 8.9916 1.93294 9.53146 1.93294 10.2267C1.93294 10.8525 2.11085 11.331 2.46667 11.6623C2.82249 11.9936 3.32759 12.1592 3.98197 12.1592H5.08624ZM3.35622 5.09804C3.15991 5.09804 2.99222 5.03873 2.85316 4.92012C2.7182 4.80151 2.65071 4.60929 2.65071 4.34345C2.65071 4.07761 2.7182 3.88538 2.85316 3.76678C2.99222 3.64817 3.15991 3.58887 3.35622 3.58887C3.5689 3.58887 3.73862 3.65431 3.86541 3.78518C3.9922 3.91197 4.05558 4.09806 4.05558 4.34345C4.05558 4.58476 3.9922 4.77084 3.86541 4.90172C3.74271 5.03259 3.57298 5.09804 3.35622 5.09804ZM5.52794 5.09804C5.31118 5.09804 5.13941 5.03259 5.01262 4.90172C4.88583 4.77084 4.82244 4.58476 4.82244 4.34345C4.82244 4.10215 4.88379 3.91606 5.00648 3.78518C5.13327 3.65431 5.30709 3.58887 5.52794 3.58887C5.75289 3.58887 5.92671 3.6584 6.0494 3.79745C6.1721 3.93242 6.23345 4.11442 6.23345 4.34345C6.23345 4.57248 6.1721 4.75653 6.0494 4.89558C5.92671 5.03055 5.75289 5.09804 5.52794 5.09804ZM7.47268 13.1408C7.43178 13.1408 7.41133 13.1203 7.41133 13.0794V12.2083C7.41133 12.1756 7.43178 12.1592 7.47268 12.1592H9.50944V7.0489H10.6259V12.1592H12.5094C12.5502 12.1592 12.5707 12.1756 12.5707 12.2083V13.0794C12.5707 13.1203 12.5502 13.1408 12.5094 13.1408H7.47268ZM9.01863 15.656C8.82234 15.656 8.65466 15.5968 8.5156 15.4781C8.38063 15.3595 8.31316 15.1673 8.31316 14.9015C8.31316 14.6356 8.38063 14.4434 8.5156 14.3248C8.65466 14.2062 8.82234 14.1469 9.01863 14.1469C9.23132 14.1469 9.40103 14.2102 9.52784 14.3371C9.65464 14.4679 9.718 14.6561 9.718 14.9015C9.718 15.1428 9.65464 15.3289 9.52784 15.4597C9.40516 15.5906 9.23545 15.656 9.01863 15.656ZM11.1904 15.656C10.9736 15.656 10.8018 15.5906 10.675 15.4597C10.5483 15.3289 10.4849 15.1428 10.4849 14.9015C10.4849 14.6601 10.5462 14.4741 10.6689 14.3432C10.7957 14.2123 10.9696 14.1469 11.1904 14.1469C11.4153 14.1469 11.5892 14.2144 11.7118 14.3494C11.8345 14.4884 11.8959 14.6724 11.8959 14.9015C11.8959 15.1305 11.8345 15.3125 11.7118 15.4475C11.5892 15.5866 11.4153 15.656 11.1904 15.656ZM12.3928 13.1408C12.3519 13.1408 12.3314 13.1203 12.3314 13.0794V12.2083C12.3314 12.1756 12.3519 12.1592 12.3928 12.1592H14.0492V7.0489H15.1657V13.1408H12.3928ZM14.5522 15.656C14.3355 15.656 14.1637 15.5906 14.0369 15.4597C13.9101 15.3289 13.8467 15.1428 13.8467 14.9015C13.8467 14.6601 13.9081 14.4741 14.0308 14.3432C14.1576 14.2123 14.3315 14.1469 14.5522 14.1469C14.7772 14.1469 14.951 14.2144 15.0737 14.3494C15.1964 14.4884 15.2578 14.6724 15.2578 14.9015C15.2578 15.1305 15.1964 15.3125 15.0737 15.4475C14.951 15.5866 14.7772 15.656 14.5522 15.656ZM19.2516 13.1408V13.4414C19.2516 14.288 19.0593 14.9526 18.6749 15.4352C18.2904 15.9178 17.7362 16.1591 17.0124 16.1591C16.6115 16.1591 16.1841 16.0405 15.7301 15.8033L16.0552 14.9628C16.2598 15.0528 16.4275 15.11 16.5583 15.1346C16.6892 15.1632 16.8323 15.1775 16.9878 15.1775C17.3641 15.1775 17.6585 15.0241 17.8712 14.7174C18.0839 14.4106 18.1902 14.0058 18.1902 13.5027V7.0489H19.2516V12.1592H20.8037C20.8486 12.1592 20.8712 12.1756 20.8712 12.2083V13.0794C20.8712 13.1203 20.8486 13.1408 20.8037 13.1408H19.2516ZM26.8035 13.1408C26.4518 13.1408 26.0734 13.0896 25.6686 12.9874C25.2637 12.8811 24.8669 12.7236 24.4784 12.515C23.7422 12.9322 22.9631 13.1408 22.141 13.1408H20.6871C20.6462 13.1408 20.6257 13.1203 20.6257 13.0794V12.2083C20.6257 12.1756 20.6462 12.1592 20.6871 12.1592H22.1287C22.7299 12.1592 23.2289 12.0754 23.6257 11.9077C23.3026 11.6746 22.9712 11.3392 22.6318 10.9016C22.2965 10.4599 22.0102 9.98544 21.7729 9.4783C21.5398 8.96705 21.3865 8.4824 21.3128 8.02434C21.7709 7.5949 22.2862 7.25749 22.8588 7.0121C23.4355 6.7667 24.0224 6.644 24.6195 6.644C25.1471 6.644 25.6788 6.72785 26.2146 6.89554C26.7503 7.06321 27.2186 7.28612 27.6194 7.56423C27.6194 8.43128 27.419 9.24926 27.0182 10.0182C26.6174 10.7871 26.0652 11.4128 25.3618 11.8954C25.8281 12.0713 26.2922 12.1592 26.7544 12.1592H28.2758C28.3167 12.1592 28.3372 12.1756 28.3372 12.2083V13.0794C28.3372 13.1203 28.3167 13.1408 28.2758 13.1408H26.8035ZM24.4907 11.3433C25.1368 10.9057 25.6174 10.4251 25.9323 9.90159C26.2472 9.37809 26.4252 8.77483 26.466 8.09182C25.8812 7.78099 25.2779 7.62557 24.6563 7.62557C23.9447 7.62557 23.233 7.86892 22.5214 8.35562C22.6482 8.9282 22.8854 9.47625 23.233 9.99975C23.5807 10.5233 23.9999 10.9711 24.4907 11.3433ZM28.1593 13.1408C28.1184 13.1408 28.0979 13.1203 28.0979 13.0794V12.2083C28.0979 12.1756 28.1184 12.1592 28.1593 12.1592H29.8157V3.595H30.9322V13.1408H28.1593ZM33.4537 3.595H34.5702V13.1408H33.4537V3.595Z" fill="var(--fill-0, white)"/>
</g>
</svg>
