<svg preserveAspectRatio="none" width="100%" height="100%" overflow="visible" style="display: block;" viewBox="0 0 18 18" fill="none" xmlns="http://www.w3.org/2000/svg">
<g id="image" clip-path="url(#clip0_0_26)">
<g id="Vector">
</g>
<path id="Vector_2" d="M9.00146 15.6002L8.00146 14.6002C4.40146 11.4002 2.00146 9.20017 2.00146 6.60017C1.98691 6.07551 2.08121 5.55353 2.2784 5.06712C2.4756 4.58071 2.77142 4.14043 3.14722 3.77402C3.52302 3.40762 3.97065 3.12304 4.46189 2.93822C4.95313 2.75339 5.47734 2.67234 6.00146 2.70017C6.57773 2.73068 7.14154 2.87962 7.65769 3.1377C8.17385 3.39578 8.63129 3.75746 9.00146 4.20017C9.39382 3.73265 9.88337 3.35626 10.436 3.09721C10.9887 2.83815 11.5911 2.70266 12.2015 2.70017C12.7178 2.69945 13.2288 2.80396 13.7034 3.00731C14.178 3.21066 14.6061 3.50859 14.9617 3.88292C15.3173 4.25724 15.5929 4.7001 15.7717 5.18448C15.9505 5.66885 16.0286 6.18458 16.0015 6.70017C16.0015 9.20017 13.6015 11.4002 10.0015 14.7002L9.00146 15.6002Z" fill="var(--fill-0, white)"/>
</g>
<defs>
<clipPath id="clip0_0_26">
<rect width="18" height="18" fill="white"/>
</clipPath>
</defs>
</svg>
