<svg width="20" height="20" viewBox="0 0 20 20" fill="none" xmlns="http://www.w3.org/2000/svg">
<g clip-path="url(#clip0_653_4284)">
<mask id="mask0_653_4284" style="mask-type:luminance" maskUnits="userSpaceOnUse" x="0" y="0" width="20" height="20">
<path d="M0 0H20V20H0V0Z" fill="white"/>
</mask>
<g mask="url(#mask0_653_4284)">
<path d="M9.9974 1.6665C7.78726 1.6665 5.66764 2.54448 4.10484 4.10728C2.54204 5.67008 1.66406 7.7897 1.66406 9.99984C1.66406 12.21 2.54204 14.3296 4.10484 15.8924C5.66764 17.4552 7.78726 18.3332 9.9974 18.3332C12.2075 18.3332 14.3271 17.4552 15.89 15.8924C17.4528 14.3296 18.3307 12.21 18.3307 9.99984C18.3307 7.7897 17.4528 5.67008 15.89 4.10728C14.3271 2.54448 12.2075 1.6665 9.9974 1.6665ZM15.8307 6.6665H13.3307C13.0807 5.58317 12.6641 4.58317 12.1641 3.6665C13.7124 4.18385 15.017 5.25131 15.8307 6.6665ZM9.9974 3.33317C10.728 4.3478 11.2907 5.47326 11.6641 6.6665H8.33073C8.70408 5.47326 9.26682 4.3478 9.9974 3.33317ZM3.58073 11.6665C3.30557 10.5724 3.30557 9.42725 3.58073 8.33317H6.33073C6.19555 9.44017 6.19555 10.5595 6.33073 11.6665H3.58073ZM4.2474 13.3332H6.7474C6.9974 14.4165 7.33073 15.3332 7.83073 16.3332C6.28243 15.8158 4.97776 14.7484 4.16406 13.3332H4.2474ZM6.7474 6.6665H4.16406C4.9574 5.26689 6.2301 4.20138 7.7474 3.6665C7.33073 4.58317 6.91406 5.58317 6.66406 6.6665H6.7474ZM9.9974 16.6665C9.26682 15.6519 8.70408 14.5264 8.33073 13.3332H11.6641C11.2907 14.5264 10.728 15.6519 9.9974 16.6665ZM11.9141 11.6665H8.08073C7.92885 10.5606 7.92885 9.43909 8.08073 8.33317H11.9141C12.067 9.43902 12.067 10.5607 11.9141 11.6665ZM12.1641 16.3332C12.6641 15.3332 12.9974 14.3332 13.3307 13.3332H15.8307C15.017 14.7484 13.7124 15.8158 12.1641 16.3332ZM13.6641 11.6665C13.7992 10.5595 13.7992 9.44017 13.6641 8.33317H16.4141C16.6892 9.42725 16.6892 10.5724 16.4141 11.6665H13.6641Z" fill="white"/>
</g>
</g>
<defs>
<clipPath id="clip0_653_4284">
<rect width="20" height="20" fill="white"/>
</clipPath>
</defs>
</svg>
