<svg preserveAspectRatio="none" width="100%" height="100%" overflow="visible" style="display: block;" viewBox="0 0 18 18" fill="none" xmlns="http://www.w3.org/2000/svg">
<g id="image" clip-path="url(#clip0_0_18)">
<path id="Vector" d="M9 1.5C7.51664 1.5 6.06659 1.93987 4.83322 2.76398C3.59985 3.58809 2.63856 4.75943 2.0709 6.12987C1.50325 7.50032 1.35472 9.00832 1.64411 10.4632C1.9335 11.918 2.64781 13.2544 3.6967 14.3033C4.74559 15.3522 6.08197 16.0665 7.53682 16.3559C8.99168 16.6453 10.4997 16.4968 11.8701 15.9291C13.2406 15.3614 14.4119 14.4001 15.236 13.1668C16.0601 11.9334 16.5 10.4834 16.5 9C16.5 8.01509 16.306 7.03982 15.9291 6.12987C15.5522 5.21993 14.9997 4.39314 14.3033 3.6967C13.6069 3.00026 12.7801 2.44781 11.8701 2.0709C10.9602 1.69399 9.98491 1.5 9 1.5ZM9 3.8C9.43512 3.8 9.86047 3.92903 10.2223 4.17077C10.584 4.41251 10.866 4.7561 11.0325 5.1581C11.199 5.56009 11.2426 6.00244 11.1577 6.4292C11.0728 6.85596 10.8633 7.24796 10.5556 7.55563C10.248 7.86331 9.85596 8.07284 9.4292 8.15773C9.00244 8.24261 8.56009 8.19905 8.1581 8.03253C7.7561 7.86602 7.41251 7.58404 7.17077 7.22225C6.92903 6.86047 6.8 6.43512 6.8 6C6.8 5.41652 7.03178 4.85695 7.44437 4.44437C7.85695 4.03178 8.41652 3.8 9 3.8ZM9 14.4C8.11026 14.4016 7.23389 14.1834 6.44882 13.7647C5.66375 13.346 4.9943 12.7398 4.5 12C4.5 10.5 7.5 9.7 9 9.7C10.5 9.7 13.5 10.5 13.5 12C13.0057 12.7398 12.3363 13.346 11.5512 13.7647C10.7661 14.1834 9.88974 14.4016 9 14.4Z" fill="var(--fill-0, white)"/>
<g id="Vector_2">
</g>
</g>
<defs>
<clipPath id="clip0_0_18">
<rect width="18" height="18" fill="white"/>
</clipPath>
</defs>
</svg>
