<svg preserveAspectRatio="none" width="100%" height="100%" overflow="visible" style="display: block;" viewBox="0 0 17 18" fill="none" xmlns="http://www.w3.org/2000/svg">
<g id="image" clip-path="url(#clip0_0_10)">
<path id="Vector" d="M13.7227 0V2.45H16.1727V4.1H13.7227V6.56H12.0827V4.09H9.63269V2.45H12.0827V0H13.7227ZM7.17269 9.82C7.58424 9.78779 7.9685 9.60156 8.24878 9.29849C8.52905 8.99542 8.68473 8.5978 8.68473 8.185C8.68473 7.7722 8.52905 7.37458 8.24878 7.07151C7.9685 6.76844 7.58424 6.58221 7.17269 6.55C6.27269 6.55 5.53269 7.28 5.53269 8.18C5.53269 9.08 6.27269 9.82 7.17269 9.82ZM8.81269 1.84V4.91H11.2627V7.36H13.6627C13.6927 7.68 13.7227 8.01 13.7227 8.35C13.7227 11.06 11.5327 14.28 7.17269 18C2.81269 14.28 0.632695 11.06 0.632695 8.35C0.598018 7.3347 0.801802 6.32541 1.2277 5.4031C1.65359 4.4808 2.28974 3.67116 3.0851 3.03915C3.88046 2.40714 4.81289 1.97036 5.80757 1.76385C6.80224 1.55733 7.83148 1.58684 8.81269 1.85V1.84Z" fill="var(--fill-0, white)"/>
</g>
<defs>
<clipPath id="clip0_0_10">
<rect width="17" height="18" fill="white"/>
</clipPath>
</defs>
</svg>
