<svg preserveAspectRatio="none" width="100%" height="100%" overflow="visible" style="display: block;" viewBox="0 0 18 18" fill="none" xmlns="http://www.w3.org/2000/svg">
<g id="image" clip-path="url(#clip0_0_29)">
<g id="Vector">
</g>
<path id="Vector_2" d="M14.3989 9.70023C14.4153 9.46718 14.4153 9.23327 14.3989 9.00023C14.4179 8.76728 14.4179 8.53317 14.3989 8.30023L15.8989 7.10023C15.934 7.03942 15.9525 6.97044 15.9525 6.90023C15.9525 6.83001 15.934 6.76103 15.8989 6.70023L14.4989 4.20023C14.4597 4.13084 14.4007 4.07474 14.3295 4.0391C14.2582 4.00347 14.1779 3.98993 14.0989 4.00023L12.2989 4.70023C11.9004 4.40738 11.4628 4.17176 10.9989 4.00023L10.6989 2.00023C10.6597 1.93084 10.6007 1.87474 10.5295 1.8391C10.4582 1.80347 10.3779 1.78993 10.2989 1.80023H7.5989C7.50807 1.79735 7.41896 1.8255 7.34625 1.88003C7.27355 1.93456 7.22158 2.01222 7.1989 2.10023L6.8989 4.10023C6.47552 4.24957 6.07241 4.45112 5.6989 4.70023L3.9989 4.00023C3.91989 3.98993 3.83961 4.00347 3.76834 4.0391C3.69707 4.07474 3.63807 4.13084 3.5989 4.20023L1.9989 6.70023C1.97257 6.74583 1.95871 6.79757 1.95871 6.85023C1.95871 6.90289 1.97257 6.95462 1.9989 7.00023L3.5989 8.20023C3.52058 8.66361 3.52058 9.13685 3.5989 9.60023L1.9989 11.0002C1.96379 11.061 1.94531 11.13 1.94531 11.2002C1.94531 11.2704 1.96379 11.3394 1.9989 11.4002L3.3989 13.9002C3.43807 13.9696 3.49707 14.0257 3.56834 14.0613C3.63961 14.097 3.71989 14.1105 3.7989 14.1002L5.5989 13.4002C6.03425 13.6666 6.50578 13.8687 6.9989 14.0002L7.2989 15.9002C7.32158 15.9882 7.37355 16.0659 7.44625 16.1204C7.51896 16.175 7.60807 16.2031 7.6989 16.2002H10.4989C10.5455 16.2168 10.5956 16.2216 10.6445 16.2142C10.6935 16.2067 10.7398 16.1873 10.7794 16.1576C10.819 16.1279 10.8506 16.0888 10.8715 16.0439C10.8923 15.999 10.9018 15.9496 10.8989 15.9002L11.1989 13.9002C11.624 13.755 12.0277 13.5532 12.3989 13.3002L14.1989 14.0002C14.2779 14.0105 14.3582 13.997 14.4295 13.9613C14.5007 13.9257 14.5597 13.8696 14.5989 13.8002L16.0989 11.3002C16.1365 11.2334 16.1471 11.1547 16.1285 11.0803C16.1099 11.0059 16.0635 10.9415 15.9989 10.9002L14.3989 9.70023ZM8.9989 11.7002C8.46489 11.7002 7.94288 11.5419 7.49886 11.2452C7.05485 10.9485 6.70878 10.5268 6.50443 10.0335C6.30007 9.54011 6.2466 8.99723 6.35078 8.47348C6.45496 7.94973 6.71211 7.46864 7.08971 7.09104C7.46732 6.71344 7.94841 6.45629 8.47216 6.35211C8.99591 6.24793 9.53879 6.3014 10.0321 6.50575C10.5255 6.71011 10.9472 7.05618 11.2439 7.50019C11.5406 7.9442 11.6989 8.46622 11.6989 9.00023C11.6989 9.71631 11.4144 10.4031 10.9081 10.9094C10.4017 11.4158 9.71499 11.7002 8.9989 11.7002Z" fill="var(--fill-0, white)"/>
</g>
<defs>
<clipPath id="clip0_0_29">
<rect width="18" height="18" fill="white"/>
</clipPath>
</defs>
</svg>
